<svg width="114" height="36" viewBox="0 0 114 36" fill="none" xmlns="http://www.w3.org/2000/svg">
<path d="M5.856 22.64H13.104V26H1.2V22.88L8.4 12.512H1.2V9.152H13.104V12.272L5.856 22.64ZM29.0089 12.608V26H24.9049V24.176C24.4889 24.768 23.9209 25.248 23.2009 25.616C22.4969 25.968 21.7129 26.144 20.8489 26.144C19.8249 26.144 18.9209 25.92 18.1369 25.472C17.3529 25.008 16.7449 24.344 16.3129 23.48C15.8809 22.616 15.6649 21.6 15.6649 20.432V12.608H19.7449V19.88C19.7449 20.776 19.9769 21.472 20.4409 21.968C20.9049 22.464 21.5289 22.712 22.3129 22.712C23.1129 22.712 23.7449 22.464 24.2089 21.968C24.6729 21.472 24.9049 20.776 24.9049 19.88V12.608H29.0089ZM36.0608 8.24V26H31.9568V8.24H36.0608ZM42.8749 22.616H48.6829V26H38.2909V22.736L43.8589 15.992H38.3389V12.608H48.5629V15.872L42.8749 22.616ZM53.0051 11.216C52.2851 11.216 51.6931 11.008 51.2291 10.592C50.7811 10.16 50.5571 9.632 50.5571 9.008C50.5571 8.368 50.7811 7.84 51.2291 7.424C51.6931 6.992 52.2851 6.776 53.0051 6.776C53.7091 6.776 54.2851 6.992 54.7331 7.424C55.1971 7.84 55.4291 8.368 55.4291 9.008C55.4291 9.632 55.1971 10.16 54.7331 10.592C54.2851 11.008 53.7091 11.216 53.0051 11.216ZM55.0451 12.608V26H50.9411V12.608H55.0451ZM57.2033 19.28C57.2033 17.904 57.4593 16.696 57.9713 15.656C58.4993 14.616 59.2113 13.816 60.1073 13.256C61.0033 12.696 62.0033 12.416 63.1073 12.416C63.9873 12.416 64.7873 12.6 65.5073 12.968C66.2433 13.336 66.8193 13.832 67.2353 14.456V8.24H71.3393V26H67.2353V24.08C66.8513 24.72 66.2993 25.232 65.5793 25.616C64.8753 26 64.0513 26.192 63.1073 26.192C62.0033 26.192 61.0033 25.912 60.1073 25.352C59.2113 24.776 58.4993 23.968 57.9713 22.928C57.4593 21.872 57.2033 20.656 57.2033 19.28ZM67.2353 19.304C67.2353 18.28 66.9473 17.472 66.3713 16.88C65.8113 16.288 65.1233 15.992 64.3073 15.992C63.4913 15.992 62.7953 16.288 62.2193 16.88C61.6593 17.456 61.3793 18.256 61.3793 19.28C61.3793 20.304 61.6593 21.12 62.2193 21.728C62.7953 22.32 63.4913 22.616 64.3073 22.616C65.1233 22.616 65.8113 22.32 66.3713 21.728C66.9473 21.136 67.2353 20.328 67.2353 19.304ZM73.4923 19.28C73.4923 17.904 73.7483 16.696 74.2603 15.656C74.7883 14.616 75.5003 13.816 76.3963 13.256C77.2923 12.696 78.2923 12.416 79.3963 12.416C80.3403 12.416 81.1643 12.608 81.8683 12.992C82.5883 13.376 83.1403 13.88 83.5243 14.504V12.608H87.6283V26H83.5243V24.104C83.1243 24.728 82.5643 25.232 81.8443 25.616C81.1403 26 80.3163 26.192 79.3723 26.192C78.2843 26.192 77.2923 25.912 76.3963 25.352C75.5003 24.776 74.7883 23.968 74.2603 22.928C73.7483 21.872 73.4923 20.656 73.4923 19.28ZM83.5243 19.304C83.5243 18.28 83.2363 17.472 82.6603 16.88C82.1003 16.288 81.4123 15.992 80.5963 15.992C79.7803 15.992 79.0843 16.288 78.5083 16.88C77.9483 17.456 77.6683 18.256 77.6683 19.28C77.6683 20.304 77.9483 21.12 78.5083 21.728C79.0843 22.32 79.7803 22.616 80.5963 22.616C81.4123 22.616 82.1003 22.32 82.6603 21.728C83.2363 21.136 83.5243 20.328 83.5243 19.304ZM98.7574 12.464C100.325 12.464 101.573 12.976 102.501 14C103.445 15.008 103.917 16.4 103.917 18.176V26H99.8374V18.728C99.8374 17.832 99.6054 17.136 99.1414 16.64C98.6774 16.144 98.0534 15.896 97.2694 15.896C96.4854 15.896 95.8614 16.144 95.3974 16.64C94.9334 17.136 94.7014 17.832 94.7014 18.728V26H90.5974V12.608H94.7014V14.384C95.1174 13.792 95.6774 13.328 96.3814 12.992C97.0854 12.64 97.8774 12.464 98.7574 12.464Z" fill="black"/>
<path d="M108.668 13.156C108.1 13.156 107.568 13.052 107.072 12.844C106.576 12.628 106.14 12.332 105.764 11.956C105.388 11.58 105.092 11.144 104.876 10.648C104.668 10.152 104.564 9.62 104.564 9.052C104.564 8.484 104.668 7.952 104.876 7.456C105.092 6.952 105.388 6.512 105.764 6.136C106.14 5.76 106.576 5.468 107.072 5.26C107.568 5.044 108.1 4.936 108.668 4.936C109.236 4.936 109.768 5.044 110.264 5.26C110.76 5.468 111.196 5.76 111.572 6.136C111.956 6.512 112.252 6.952 112.46 7.456C112.676 7.952 112.784 8.484 112.784 9.052C112.784 9.62 112.676 10.152 112.46 10.648C112.252 11.144 111.956 11.58 111.572 11.956C111.196 12.332 110.76 12.628 110.264 12.844C109.768 13.052 109.236 13.156 108.668 13.156ZM108.668 12.568C109.156 12.568 109.612 12.476 110.036 12.292C110.46 12.108 110.832 11.856 111.152 11.536C111.48 11.208 111.736 10.832 111.92 10.408C112.104 9.984 112.196 9.532 112.196 9.052C112.196 8.564 112.104 8.108 111.92 7.684C111.736 7.26 111.48 6.888 111.152 6.568C110.832 6.24 110.46 5.984 110.036 5.8C109.612 5.616 109.156 5.524 108.668 5.524C108.18 5.524 107.724 5.616 107.3 5.8C106.876 5.984 106.5 6.24 106.172 6.568C105.852 6.888 105.6 7.26 105.416 7.684C105.24 8.108 105.152 8.564 105.152 9.052C105.152 9.532 105.24 9.984 105.416 10.408C105.6 10.832 105.852 11.208 106.172 11.536C106.5 11.856 106.876 12.108 107.3 12.292C107.724 12.476 108.18 12.568 108.668 12.568ZM108.668 11.404C108.204 11.404 107.804 11.304 107.468 11.104C107.132 10.896 106.872 10.616 106.688 10.264C106.512 9.904 106.424 9.5 106.424 9.052C106.424 8.596 106.512 8.192 106.688 7.84C106.872 7.488 107.132 7.212 107.468 7.012C107.804 6.812 108.204 6.712 108.668 6.712C109.212 6.712 109.684 6.852 110.084 7.132C110.492 7.412 110.74 7.84 110.828 8.416H110.024C109.968 8.12 109.824 7.888 109.592 7.72C109.368 7.552 109.08 7.468 108.728 7.468C108.264 7.468 107.9 7.616 107.636 7.912C107.372 8.2 107.24 8.58 107.24 9.052C107.24 9.516 107.372 9.896 107.636 10.192C107.9 10.488 108.264 10.636 108.728 10.636C109.08 10.636 109.368 10.552 109.592 10.384C109.824 10.216 109.968 9.984 110.024 9.688H110.828C110.74 10.272 110.492 10.704 110.084 10.984C109.684 11.264 109.212 11.404 108.668 11.404Z" fill="black"/>
</svg>
